HIERARCHY
ROOT Hips
{
 OFFSET 0.000000 0.000000 0.000000
 CHANNELS 6 Xposition Yposition Zposition Yrotation Xrotation Zrotation
 JOINT Chest
 {
  OFFSET 0.000000 9.588913 -0.003946
  CHANNELS 3 Yrotation Xrotation Zrotation
  JOINT Chest2
  {
   OFFSET 0.000000 9.541882 0.008053
   CHANNELS 3 Yrotation Xrotation Zrotation
   JOINT Chest3
   {
    OFFSET 0.000000 9.501360 0.000000
    CHANNELS 3 Yrotation Xrotation Zrotation
    JOINT Chest4
    {
     OFFSET 0.000000 9.491660 0.000000
     CHANNELS 3 Yrotation Xrotation Zrotation
     JOINT Neck
     {
      OFFSET 0.000000 14.331917 0.000000
      CHANNELS 3 Yrotation Xrotation Zrotation
      JOINT Head
      {
       OFFSET 0.000000 8.884799 0.017034
       CHANNELS 3 Yrotation Xrotation Zrotation
       End Site
       {
        OFFSET 0.000000 16.896195 0.008993
       }
      }
     }
     JOINT RightCollar
     {
      OFFSET -2.923010 9.499495 0.000000
      CHANNELS 3 Yrotation Xrotation Zrotation
      JOINT RightShoulder
      {
       OFFSET -13.795216 0.000000 0.000000
       CHANNELS 3 Yrotation Xrotation Zrotation
       JOINT RightElbow
       {
        OFFSET -30.272209 0.000000 0.000000
        CHANNELS 3 Yrotation Xrotation Zrotation
        JOINT RightWrist
        {
         OFFSET -24.478199 0.000000 0.000000
         CHANNELS 3 Yrotation Xrotation Zrotation
         End Site
         {
          OFFSET -18.090752 0.000000 0.000000
         }
        }
       }
      }
     }
     JOINT LeftCollar
     {
      OFFSET 2.923010 9.499495 0.000000
      CHANNELS 3 Yrotation Xrotation Zrotation
      JOINT LeftShoulder
      {
       OFFSET 13.795216 0.000000 0.000000
       CHANNELS 3 Yrotation Xrotation Zrotation
       JOINT LeftElbow
       {
        OFFSET 30.272209 0.000000 0.000000
        CHANNELS 3 Yrotation Xrotation Zrotation
        JOINT LeftWrist
        {
         OFFSET 24.478199 0.000000 0.000000
         CHANNELS 3 Yrotation Xrotation Zrotation
         End Site
         {
          OFFSET 18.090752 0.000000 0.000000
         }
        }
       }
      }
     }
    }
   }
  }
 }
 JOINT RightHip
 {
  OFFSET -7.826875 0.019532 0.001973
  CHANNELS 3 Yrotation Xrotation Zrotation
  JOINT RightKnee
  {
   OFFSET 0.000000 -40.546152 -0.001885
   CHANNELS 3 Yrotation Xrotation Zrotation
   JOINT RightAnkle
   {
    OFFSET 0.000000 -39.417092 -0.003189
    CHANNELS 3 Yrotation Xrotation Zrotation
    JOINT RightToe
    {
     OFFSET 0.000000 -7.579396 17.243563
     CHANNELS 3 Yrotation Xrotation Zrotation
     End Site
     {
      OFFSET 0.000000 -1.500329 6.694466
     }
    }
   }
  }
 }
 JOINT LeftHip
 {
  OFFSET 7.826875 0.019532 0.001973
  CHANNELS 3 Yrotation Xrotation Zrotation
  JOINT LeftKnee
  {
   OFFSET 0.000000 -40.546152 -0.001885
   CHANNELS 3 Yrotation Xrotation Zrotation
   JOINT LeftAnkle
   {
    OFFSET 0.000000 -39.417092 -0.003189
    CHANNELS 3 Yrotation Xrotation Zrotation
    JOINT LeftToe
    {
     OFFSET 0.000000 -7.579396 17.243563
     CHANNELS 3 Yrotation Xrotation Zrotation
     End Site
     {
      OFFSET 0.000000 -1.500329 6.694466
     }
    }
   }
  }
 }
}
MOTION
Frames: 5
Frame Time: 0.008333
0.000000 87.345680 0.000000 0.000000 -5.767889 0.000000 0.000000 11.653876 0.000000 0.000000 -5.885988 0.000000 0.000000 -0.000000 0.000000 0.000000 -0.000000 0.000000 0.000000 12.528808 0.000000 0.000000 0.711711 0.000000 0.000000 -0.000000 0.000000 0.000000 -0.000000 0.000000 2.309063 -0.000000 0.000000 -2.309063 -0.000000 -0.000000 0.000000 -0.000000 0.000000 0.000000 0.000000 0.000000 -2.309063 0.000000 0.000000 2.309063 -0.000000 0.000000 0.000000 8.520374 0.000000 0.000000 1.905768 0.000000 -0.000000 -4.658254 0.000000 0.000000 -0.000000 0.000000 0.000000 8.520374 0.000000 0.000000 1.905768 0.000000 -0.000000 -4.658254 0.000000 0.000000 -0.000000 0.000000
-11.181900 50.727079 -22.223349 41.709113 -28.958065 -2.389685 -1.535271 13.382873 0.719776 -0.869268 7.639140 0.578388 -1.076811 9.550201 0.706250 -0.869268 7.639140 0.578388 0.410858 20.034857 -1.380799 0.751357 -4.495896 -1.561202 9.163253 -4.609940 -0.408756 12.099315 -30.535150 65.342611 66.006797 6.321608 8.260666 -7.643193 9.106714 3.712160 1.547856 -6.251972 -4.152654 -3.453797 -31.987839 -76.836615 -65.288474 -6.454158 -36.891855 13.787085 5.584889 2.678555 15.189443 -47.536144 -38.586638 103.822077 63.291116 113.065404 -0.591010 -17.647450 3.121798 0.215036 -0.186476 0.093865 25.494586 -46.256264 -39.000960 78.043874 55.061259 106.720840 -2.354765 -10.503129 -10.223077 -0.115643 0.240931 -0.032413
-11.184479 50.728353 -22.223084 41.702030 -28.952460 -2.385464 -1.529271 13.381752 0.720699 -0.869783 7.639996 0.577559 -1.077473 9.551270 0.705199 -0.869783 7.639996 0.577559 0.412516 20.026311 -1.380716 0.753080 -4.505601 -1.561438 9.161178 -4.607961 -0.410165 12.106265 -30.538340 65.341364 66.016877 6.324700 8.263748 -7.652893 9.099515 3.703296 1.541760 -6.249495 -4.151685 -3.461545 -31.985635 -76.826939 -65.303122 -6.462766 -36.879413 13.793525 5.584758 2.680215 15.200357 -47.544448 -38.587579 103.817026 63.286858 113.062842 -0.593691 -17.642932 3.118883 0.215558 -0.186839 0.094232 25.495114 -46.260169 -38.994980 78.043346 55.066553 106.711832 -2.353284 -10.511050 -10.222382 -0.116192 0.245982 -0.034914
-11.186628 50.730163 -22.222960 41.694513 -28.949918 -2.378171 -1.526817 13.382049 0.719457 -0.871147 7.640850 0.576947 -1.079194 9.552338 0.704402 -0.871147 7.640850 0.576947 0.414361 20.018365 -1.383453 0.755651 -4.514563 -1.564725 9.163546 -4.603483 -0.417748 12.113762 -30.540304 65.342378 66.026916 6.327022 8.266227 -7.666444 9.089749 3.692775 1.544080 -6.246800 -4.155699 -3.477567 -31.982262 -76.815866 -65.319642 -6.467804 -36.862734 13.802214 5.583952 2.684316 15.210490 -47.549885 -38.590824 103.815837 63.282364 113.061438 -0.591942 -17.640973 3.115618 0.213367 -0.186709 0.093784 25.498430 -46.261200 -38.990290 78.043693 55.072263 106.702201 -2.355871 -10.514768 -10.217802 -0.115014 0.247486 -0.038108
-11.188573 50.732251 -22.223258 41.690304 -28.948125 -2.370628 -1.529349 13.383662 0.715744 -0.873549 7.641907 0.576494 -1.082211 9.553661 0.703781 -0.873549 7.641907 0.576494 0.416201 20.010565 -1.387215 0.758450 -4.523337 -1.569104 9.171203 -4.600885 -0.428664 12.118640 -30.541507 65.345676 66.036416 6.328535 8.272532 -7.680596 9.079670 3.678328 1.552804 -6.246883 -4.161201 -3.499854 -31.977838 -76.804862 -65.334492 -6.469758 -36.840211 13.808777 5.585976 2.688713 15.217949 -47.554325 -38.596446 103.817727 63.276594 113.060119 -0.586811 -17.640967 3.114282 0.207398 -0.187004 0.091773 25.503474 -46.261819 -38.988111 78.041446 55.076438 106.691674 -2.367421 -10.513082 -10.213297 -0.110055 0.245768 -0.038975
